<svg width="24" height="25" viewBox="0 0 24 25" fill="none" xmlns="http://www.w3.org/2000/svg">
<path d="M22 23.25H2C1.59 23.25 1.25 22.91 1.25 22.5C1.25 22.09 1.59 21.75 2 21.75H22C22.41 21.75 22.75 22.09 22.75 22.5C22.75 22.91 22.41 23.25 22 23.25Z" fill="#4B68FF"/>
<path opacity="0.4" d="M21 10.4799V22.4999H2.95001L3.00001 10.4699C3.00001 9.85992 3.28001 9.27997 3.77001 8.89997L10.77 3.45997C11.49 2.88997 12.51 2.88997 13.23 3.45997L14.57 4.49995L19 7.93995L20.23 8.89997C20.72 9.27997 21 9.85993 21 10.4799Z" fill="#4B68FF"/>
<path d="M13 17.5H11C10.17 17.5 9.5 18.17 9.5 19V22.5H14.5V19C14.5 18.17 13.83 17.5 13 17.5Z" fill="#4B68FF"/>
<path d="M9.5 14.25H7.5C6.95 14.25 6.5 13.8 6.5 13.25V11.75C6.5 11.2 6.95 10.75 7.5 10.75H9.5C10.05 10.75 10.5 11.2 10.5 11.75V13.25C10.5 13.8 10.05 14.25 9.5 14.25Z" fill="#4B68FF"/>
<path d="M16.5 14.25H14.5C13.95 14.25 13.5 13.8 13.5 13.25V11.75C13.5 11.2 13.95 10.75 14.5 10.75H16.5C17.05 10.75 17.5 11.2 17.5 11.75V13.25C17.5 13.8 17.05 14.25 16.5 14.25Z" fill="#4B68FF"/>
<path d="M19 7.94L14.57 4.5H17.98C18.53 4.5 18.98 4.93999 18.98 5.48999L19 7.94Z" fill="#4B68FF"/>
</svg>
