<svg width="24" height="25" viewBox="0 0 24 25" fill="none" xmlns="http://www.w3.org/2000/svg">
<path opacity="0.4" d="M19.34 14.9899L18.34 13.3299C18.13 12.9599 17.94 12.2599 17.94 11.8499V9.3199C17.94 6.0599 15.29 3.3999 12.02 3.3999C8.75 3.3999 6.1 6.0599 6.1 9.3199V11.8499C6.1 12.2599 5.91 12.9599 5.7 13.3199L4.69 14.9899C4.29 15.6599 4.2 16.3999 4.45 17.0799C4.69 17.7499 5.26 18.2699 6 18.5199C7.94 19.1799 9.98 19.4999 12.02 19.4999C14.06 19.4999 16.1 19.1799 18.04 18.5299C18.74 18.2999 19.28 17.7699 19.54 17.0799C19.8 16.3899 19.73 15.6299 19.34 14.9899Z" fill="#4B68FF"/>
<path d="M14.25 3.82C13.56 3.55 12.81 3.4 12.02 3.4C11.24 3.4 10.49 3.54 9.79999 3.82C10.23 3.01 11.08 2.5 12.02 2.5C12.97 2.5 13.81 3.01 14.25 3.82Z" fill="#4B68FF"/>
<path d="M14.83 20.51C14.41 21.67 13.3 22.5 12 22.5C11.21 22.5 10.43 22.18 9.87999 21.61C9.55999 21.31 9.31999 20.91 9.17999 20.5C9.30999 20.52 9.43999 20.53 9.57999 20.55C9.80999 20.58 10.05 20.61 10.29 20.63C10.86 20.68 11.44 20.71 12.02 20.71C12.59 20.71 13.16 20.68 13.72 20.63C13.93 20.61 14.14 20.6 14.34 20.57C14.5 20.55 14.66 20.53 14.83 20.51Z" fill="#4B68FF"/>
</svg>
