<svg width="24" height="25" viewBox="0 0 24 25" fill="none" xmlns="http://www.w3.org/2000/svg">
<path opacity="0.4" d="M20.91 11.62C20.91 16.51 17.36 21.09 12.51 22.43C12.18 22.52 11.82 22.52 11.49 22.43C6.63999 21.09 3.09 16.51 3.09 11.62V7.23006C3.09 6.41006 3.71001 5.48007 4.48001 5.17007L10.05 2.89007C11.3 2.38007 12.71 2.38007 13.96 2.89007L19.53 5.17007C20.29 5.48007 20.92 6.41006 20.92 7.23006L20.91 11.62Z" fill="#4B68FF"/>
<path d="M14.5 11C14.5 9.62 13.38 8.5 12 8.5C10.62 8.5 9.5 9.62 9.5 11C9.5 12.12 10.24 13.05 11.25 13.37V16C11.25 16.41 11.59 16.75 12 16.75C12.41 16.75 12.75 16.41 12.75 16V13.37C13.76 13.05 14.5 12.12 14.5 11Z" fill="#4B68FF"/>
</svg>
