<svg width="20" height="20" viewBox="0 0 20 20" fill="none" xmlns="http://www.w3.org/2000/svg">
<path fill-rule="evenodd" clip-rule="evenodd" d="M12.5 4.16671C12.5 2.32576 13.9924 0.833374 15.8334 0.833374C17.6743 0.833374 19.1667 2.32576 19.1667 4.16671C19.1667 6.00766 17.6743 7.50004 15.8334 7.50004C14.6955 7.50004 13.6908 6.92994 13.0894 6.0598L7.30671 8.87869C7.43186 9.22911 7.50002 9.60662 7.50002 10C7.50002 10.3663 7.44095 10.7187 7.33182 11.0484L13.0813 13.952C13.6819 13.0753 14.6904 12.5 15.8334 12.5C17.6743 12.5 19.1667 13.9924 19.1667 15.8334C19.1667 17.6743 17.6743 19.1667 15.8334 19.1667C13.9924 19.1667 12.5 17.6743 12.5 15.8334C12.5 15.7319 12.5046 15.6315 12.5134 15.5323L6.42096 12.4555C5.82754 13.0006 5.03597 13.3334 4.16669 13.3334C2.32574 13.3334 0.833355 11.841 0.833355 10C0.833355 8.15909 2.32574 6.66671 4.16669 6.66671C5.00518 6.66671 5.77137 6.97631 6.35717 7.48742L12.5151 4.48561C12.5051 4.38065 12.5 4.27427 12.5 4.16671ZM17.5 4.16671C17.5 3.24623 16.7538 2.50004 15.8334 2.50004C14.9129 2.50004 14.1667 3.24623 14.1667 4.16671C14.1667 5.08718 14.9129 5.83337 15.8334 5.83337C16.7538 5.83337 17.5 5.08718 17.5 4.16671ZM17.5 15.8334C17.5 14.9129 16.7538 14.1667 15.8334 14.1667C14.9129 14.1667 14.1667 14.9129 14.1667 15.8334C14.1667 16.7538 14.9129 17.5 15.8334 17.5C16.7538 17.5 17.5 16.7538 17.5 15.8334ZM4.16669 8.33337C5.08716 8.33337 5.83335 9.07957 5.83335 10C5.83335 10.9205 5.08716 11.6667 4.16669 11.6667C3.24621 11.6667 2.50002 10.9205 2.50002 10C2.50002 9.07957 3.24621 8.33337 4.16669 8.33337Z" fill="#939393"/>
</svg>
