<svg width="25" height="24" viewBox="0 0 25 24" fill="none" xmlns="http://www.w3.org/2000/svg">
<path d="M11.0833 4.63998L6.65331 2.44998C4.26331 1.27998 2.30331 2.46998 2.30331 5.08998V19.93C2.30331 21.07 3.25331 22 4.41331 22H11.8333C12.3833 22 12.8333 21.55 12.8333 21V7.40998C12.8333 6.35998 12.0433 5.10998 11.0833 4.63998ZM9.30331 13.75H5.83331C5.42331 13.75 5.08331 13.41 5.08331 13C5.08331 12.59 5.42331 12.25 5.83331 12.25H9.30331C9.71331 12.25 10.0533 12.59 10.0533 13C10.0533 13.41 9.72331 13.75 9.30331 13.75ZM9.30331 9.74998H5.83331C5.42331 9.74998 5.08331 9.40998 5.08331 8.99998C5.08331 8.58998 5.42331 8.24998 5.83331 8.24998H9.30331C9.71331 8.24998 10.0533 8.58998 10.0533 8.99998C10.0533 9.40998 9.72331 9.74998 9.30331 9.74998Z" fill="#4B68FF"/>
<path d="M22.3333 18.04V19.5C22.3333 20.88 21.2133 22 19.8333 22H15.3033C14.7633 22 14.3333 21.57 14.3333 21.03V18.87C15.4033 19 16.5333 18.69 17.3433 18.04C18.0233 18.59 18.8933 18.92 19.8433 18.92C20.7733 18.92 21.6433 18.59 22.3333 18.04Z" fill="#4B68FF"/>
<path d="M22.3333 15.05V15.06C22.2533 16.37 21.1833 17.42 19.8433 17.42C18.4533 17.42 17.3433 16.29 17.3433 14.92C17.3433 16.45 15.9333 17.68 14.3333 17.37V12C14.3333 11.36 14.9233 10.88 15.5533 11.02L17.3433 11.42L17.8233 11.53L19.8633 11.99C20.3533 12.09 20.8033 12.26 21.1933 12.51C21.1933 12.52 21.2033 12.52 21.2033 12.52C21.3033 12.59 21.4033 12.67 21.4933 12.76C21.9533 13.22 22.2533 13.89 22.3233 14.87C22.3233 14.93 22.3333 14.99 22.3333 15.05Z" fill="#4B68FF"/>
</svg>
