<svg width="25" height="24" viewBox="0 0 25 24" fill="none" xmlns="http://www.w3.org/2000/svg">
<path d="M12.8333 22.0001H4.41328C3.25328 22.0001 2.30328 21.0701 2.30328 19.9301V5.09011C2.30328 2.47011 4.25328 1.2801 6.64328 2.4501L11.0833 4.63011C12.0433 5.10011 12.8333 6.3501 12.8333 7.4101V22.0001Z" stroke="#939393" stroke-width="1.5" stroke-linecap="round" stroke-linejoin="round"/>
<path d="M22.3033 15.0602V18.8402C22.3033 21.0002 21.3033 22.0002 19.1433 22.0002H12.8333V10.4202L13.3033 10.5202L17.8033 11.5302L19.8333 11.9802C21.1533 12.2702 22.2333 12.9502 22.2933 14.8702C22.3033 14.9302 22.3033 14.9902 22.3033 15.0602Z" stroke="#939393" stroke-width="1.5" stroke-linecap="round" stroke-linejoin="round"/>
<path d="M5.83331 9H9.30331" stroke="#939393" stroke-width="1.5" stroke-linecap="round" stroke-linejoin="round"/>
<path d="M5.83331 13H9.30331" stroke="#939393" stroke-width="1.5" stroke-linecap="round" stroke-linejoin="round"/>
<path d="M17.8033 11.53V14.75C17.8033 15.99 16.7933 17 15.5533 17C14.3133 17 13.3033 15.99 13.3033 14.75V10.52L17.8033 11.53Z" stroke="#939393" stroke-width="1.5" stroke-linecap="round" stroke-linejoin="round"/>
<path d="M22.2933 14.87C22.2333 16.05 21.2533 17 20.0533 17C18.8133 17 17.8033 15.99 17.8033 14.75V11.53L19.8333 11.98C21.1533 12.27 22.2333 12.95 22.2933 14.87Z" stroke="#939393" stroke-width="1.5" stroke-linecap="round" stroke-linejoin="round"/>
</svg>
