<svg width="12" height="13" viewBox="0 0 12 13" fill="none" xmlns="http://www.w3.org/2000/svg">
<path d="M10.7799 5.87003L10.0999 5.08003C9.96994 4.93003 9.86494 4.65003 9.86494 4.45003V3.60003C9.86494 3.07003 9.42994 2.63503 8.89994 2.63503H8.04994C7.85494 2.63503 7.56994 2.53003 7.41994 2.40003L6.62994 1.72003C6.28494 1.42503 5.71994 1.42503 5.36994 1.72003L4.58494 2.40503C4.43494 2.53003 4.14994 2.63503 3.95494 2.63503H3.08994C2.55994 2.63503 2.12494 3.07003 2.12494 3.60003V4.45503C2.12494 4.65003 2.01994 4.93003 1.89494 5.08003L1.21994 5.87503C0.929941 6.22003 0.929941 6.78003 1.21994 7.12503L1.89494 7.92003C2.01994 8.07003 2.12494 8.35003 2.12494 8.54503V9.40003C2.12494 9.93003 2.55994 10.365 3.08994 10.365H3.95494C4.14994 10.365 4.43494 10.47 4.58494 10.6L5.37494 11.28C5.71994 11.575 6.28494 11.575 6.63494 11.28L7.42494 10.6C7.57494 10.47 7.85494 10.365 8.05494 10.365H8.90494C9.43494 10.365 9.86994 9.93003 9.86994 9.40003V8.55003C9.86994 8.35503 9.97494 8.07003 10.1049 7.92003L10.7849 7.13003C11.0749 6.78503 11.0749 6.21503 10.7799 5.87003ZM8.07994 5.55503L5.66494 7.97003C5.59494 8.04003 5.49994 8.08003 5.39994 8.08003C5.29994 8.08003 5.20494 8.04003 5.13494 7.97003L3.92494 6.76003C3.77994 6.61503 3.77994 6.37503 3.92494 6.23003C4.06994 6.08503 4.30994 6.08503 4.45494 6.23003L5.39994 7.17503L7.54994 5.02503C7.69494 4.88003 7.93494 4.88003 8.07994 5.02503C8.22494 5.17003 8.22494 5.41003 8.07994 5.55503Z" fill="#0077CD"/>
</svg>
