<svg width="48" height="24" viewBox="0 0 48 24" fill="none" xmlns="http://www.w3.org/2000/svg">
<rect width="48" height="24" rx="2" fill="#FBFAF8"/>
<path fill-rule="evenodd" clip-rule="evenodd" d="M15.3285 6.40405C15.3955 7.00212 15.1503 7.60242 14.7855 8.03403C14.4207 8.46564 13.8225 8.80116 13.2372 8.75648C13.1572 8.1707 13.4527 7.55997 13.7905 7.17752C14.1675 6.74628 14.8034 6.42528 15.3285 6.40405ZM17.2212 9.88788C17.1255 9.94513 16.0864 10.5664 16.0987 11.8278C16.1124 13.337 17.4233 13.8624 17.4969 13.8919C17.4986 13.8926 17.4996 13.893 17.5 13.8931C17.4993 13.8952 17.4979 13.8994 17.496 13.9055C17.463 14.0084 17.2521 14.6665 16.7769 15.3451C16.3416 15.9666 15.8911 16.5863 15.1794 16.599C14.8378 16.6051 14.6094 16.5086 14.372 16.4082C14.1234 16.3031 13.8649 16.1938 13.4563 16.1938C13.0284 16.1938 12.758 16.3064 12.4976 16.4149C12.2717 16.5089 12.0533 16.5999 11.7461 16.6116C11.0596 16.6366 10.5371 15.9394 10.0984 15.3198C9.20165 14.0529 8.5166 11.7388 9.43661 10.1762C9.89356 9.40055 10.71 8.90936 11.5965 8.89707C11.9786 8.8901 12.3486 9.03355 12.6726 9.15913C12.9201 9.25508 13.1408 9.34059 13.3192 9.34059C13.4793 9.34059 13.6939 9.25779 13.9443 9.16122C14.3382 9.00924 14.8205 8.82316 15.3176 8.87212C15.6577 8.88702 16.6131 9.0073 17.2266 9.88466C17.2254 9.88539 17.2236 9.88646 17.2212 9.88788Z" fill="#2A2D2E"/>
<path d="M21.4177 16V7.41281H24.655C26.2677 7.41281 27.4102 8.52563 27.4102 10.1562V10.1681C27.4102 11.7986 26.2677 12.9353 24.655 12.9353H22.4888V16H21.4177ZM24.3812 8.36496H22.4888V11.9831H24.3812C25.6071 11.9831 26.3153 11.3107 26.3153 10.18V10.1681C26.3153 9.03741 25.6071 8.36496 24.3812 8.36496ZM29.9286 16.1131C28.7086 16.1131 27.7863 15.3752 27.7863 14.2088V14.1969C27.7863 13.0543 28.6313 12.3937 30.125 12.3045L31.9638 12.1914V11.6082C31.9638 10.8167 31.4818 10.3883 30.5237 10.3883C29.756 10.3883 29.2502 10.6739 29.0836 11.1738L29.0776 11.1917H28.0421L28.0481 11.1559C28.2147 10.1502 29.1907 9.47183 30.5594 9.47183C32.1245 9.47183 32.9993 10.2752 32.9993 11.6082V16H31.9638V15.0538H31.8686C31.4639 15.7382 30.7915 16.1131 29.9286 16.1131ZM28.8455 14.185C28.8455 14.8336 29.399 15.2145 30.1428 15.2145C31.1961 15.2145 31.9638 14.5242 31.9638 13.6077V13.0245L30.2499 13.1317C29.274 13.1912 28.8455 13.5363 28.8455 14.1731V14.185ZM34.5714 18.2495C34.4346 18.2495 34.256 18.2375 34.1132 18.2137V17.3628C34.2382 17.3866 34.3988 17.3925 34.5417 17.3925C35.1308 17.3925 35.4879 17.1247 35.72 16.3868L35.839 16.006L33.4646 9.5849H34.5714L36.3329 14.8634H36.4281L38.1836 9.5849H39.2727L36.7673 16.3928C36.2377 17.8329 35.7081 18.2495 34.5714 18.2495Z" fill="#2A2D2E"/>
</svg>
