<svg width="48" height="24" viewBox="0 0 48 24" fill="none" xmlns="http://www.w3.org/2000/svg">
<rect width="48" height="24" rx="2" fill="#FBFAF8"/>
<g clip-path="url(#clip0_85_2921)">
<path d="M18.3587 12.1038C18.3592 11.7636 18.3287 11.424 18.2676 11.0887H13.2839V13.0104H16.1377C16.0793 13.3171 15.9557 13.6094 15.7744 13.8698C15.5931 14.1302 15.3578 14.3532 15.0827 14.5254V15.7759H16.7863C17.7837 14.9076 18.3587 13.6228 18.3587 12.1038Z" fill="#4285F4"/>
<path d="M13.284 16.9811C14.7088 16.9811 15.9113 16.5385 16.7863 15.7759L15.0828 14.5278C14.6083 14.8328 13.9985 15.0052 13.284 15.0052C11.9061 15.0052 10.7358 14.1279 10.3175 12.9457H8.56299V14.2316C9.00263 15.0582 9.67696 15.753 10.5106 16.2385C11.3443 16.724 12.3045 16.9811 13.284 16.9811Z" fill="#34A853"/>
<path d="M10.3175 12.9457C10.0963 12.3261 10.0963 11.6552 10.3175 11.0356V9.74939H8.56291C8.19246 10.4449 7.99951 11.2127 7.99951 11.9913C7.99951 12.7698 8.19246 13.5376 8.56291 14.2331L10.3175 12.9457Z" fill="#FBBC04"/>
<path d="M23.1346 12.8634V16.3796H21.9524V7.693H25.0855C25.4596 7.68541 25.8316 7.74795 26.18 7.87701C26.5283 8.00606 26.8461 8.19907 27.115 8.44487C27.3823 8.67998 27.5954 8.96455 27.7412 9.28085C27.887 9.59715 27.9622 9.93841 27.9622 10.2834C27.9622 10.6283 27.887 10.9696 27.7412 11.2859C27.5954 11.6022 27.3823 11.8867 27.115 12.1219C26.5667 12.6156 25.8902 12.862 25.0855 12.8612H23.1339L23.1346 12.8634ZM23.1346 8.76361V11.7964H25.1159C25.4303 11.8019 25.7394 11.7198 26.0047 11.5604C26.27 11.401 26.4797 11.1714 26.6076 10.9001C26.7356 10.6289 26.7761 10.3281 26.7241 10.0353C26.6722 9.74243 26.5301 9.47052 26.3155 9.25347C26.3049 9.2431 26.2955 9.23303 26.2832 9.22297C26.1341 9.07236 25.9528 8.95341 25.7514 8.87401C25.5499 8.7946 25.3328 8.75656 25.1146 8.76239L23.1346 8.76361ZM30.6867 10.2433C31.5606 10.2433 32.2497 10.4635 32.754 10.9039C33.2583 11.3444 33.5108 11.9486 33.5114 12.7166V16.3796H32.3809V15.556H32.3302C31.8407 16.2356 31.1897 16.5752 30.377 16.5748C29.684 16.5748 29.1041 16.3807 28.6373 15.9925C28.4134 15.8143 28.2344 15.5911 28.1133 15.3394C27.9923 15.0876 27.9321 14.8135 27.9373 14.537C27.9373 13.9217 28.1836 13.4326 28.676 13.0698C29.1685 12.7071 29.8253 12.5253 30.6464 12.5245C31.3476 12.5245 31.9268 12.6465 32.3796 12.8878V12.6321C32.381 12.4437 32.3379 12.2573 32.2536 12.0866C32.1692 11.9158 32.0457 11.7649 31.8919 11.6448C31.5793 11.3786 31.1719 11.2335 30.751 11.2385C30.0914 11.2385 29.5691 11.5013 29.1841 12.027L28.1457 11.4066C28.7165 10.6306 29.5632 10.2428 30.6858 10.2433H30.6867ZM29.1573 14.5608C29.1567 14.7026 29.1919 14.8425 29.2599 14.969C29.3279 15.0954 29.4268 15.2048 29.5485 15.2879C29.8099 15.482 30.1343 15.5849 30.4668 15.5792C30.9652 15.5779 31.4428 15.3907 31.7956 15.0583C32.1871 14.7101 32.3827 14.3017 32.3825 13.833C32.0139 13.5558 31.5001 13.4171 30.8411 13.4167C30.3612 13.4167 29.9608 13.5259 29.6402 13.7442C29.3172 13.9672 29.1557 14.2368 29.1557 14.5608H29.1573ZM39.9999 10.4382L36.0551 19H34.8354L36.2989 16.0038L33.7039 10.4382H34.9882L36.8616 14.7084H36.8871L38.7115 10.4382H39.9999Z" fill="#5F6368"/>
<path d="M13.284 8.97621C14.0373 8.96457 14.7652 9.23321 15.3105 9.72411L16.8199 8.30029C15.8632 7.45211 14.5962 6.98627 13.284 7.00031C12.3046 7.0005 11.3446 7.25766 10.5109 7.74309C9.67731 8.22852 9.00291 8.92314 8.56299 9.74943L10.3175 11.0357C10.7358 9.85344 11.9061 8.97621 13.284 8.97621Z" fill="#EA4335"/>
</g>
<defs>
<clipPath id="clip0_85_2921">
<rect width="32" height="12" fill="white" transform="translate(8 7)"/>
</clipPath>
</defs>
</svg>
