<svg width="48" height="24" viewBox="0 0 48 24" fill="none" xmlns="http://www.w3.org/2000/svg">
<rect width="48" height="24" rx="2" fill="#FBFAF8"/>
<path fill-rule="evenodd" clip-rule="evenodd" d="M29.8063 21C34.8838 21 38.9999 16.9706 38.9999 12C38.9999 7.02944 34.8838 3 29.8063 3C24.7289 3 20.6128 7.02944 20.6128 12C20.6128 16.9706 24.7289 21 29.8063 21Z" fill="#F79E1B"/>
<path fill-rule="evenodd" clip-rule="evenodd" d="M18.1935 21C23.271 21 27.3871 16.9706 27.3871 12C27.3871 7.02944 23.271 3 18.1935 3C13.1161 3 9 7.02944 9 12C9 16.9706 13.1161 21 18.1935 21Z" fill="#EB001B"/>
<path fill-rule="evenodd" clip-rule="evenodd" d="M23.9997 5.02197C21.9327 6.67231 20.6128 9.18525 20.6128 12C20.6128 14.8147 21.9327 17.3277 23.9997 18.978C26.0667 17.3277 27.3866 14.8147 27.3866 12C27.3866 9.18525 26.0667 6.67231 23.9997 5.02197Z" fill="#FF5F00"/>
</svg>
