<svg width="48" height="24" viewBox="0 0 48 24" fill="none" xmlns="http://www.w3.org/2000/svg">
<rect width="48" height="24" rx="2" fill="#FBFAF8"/>
<path fill-rule="evenodd" clip-rule="evenodd" d="M20.5455 20.3898L20.8726 18.4085L20.1438 18.3922H16.6638L19.0823 3.77073C19.0898 3.72646 19.1142 3.68536 19.1498 3.65612C19.1855 3.62688 19.2311 3.61084 19.2787 3.61084H25.1466C27.0948 3.61084 28.4391 3.99729 29.1409 4.76017C29.47 5.11805 29.6796 5.49214 29.781 5.90365C29.8874 6.33555 29.8892 6.85149 29.7854 7.48087L29.7779 7.52665V7.92998L30.107 8.10775C30.384 8.24793 30.6043 8.40832 30.7732 8.59194C31.0546 8.89803 31.2367 9.28699 31.3136 9.74795C31.3931 10.2221 31.3668 10.7865 31.2367 11.4254C31.0865 12.1602 30.8438 12.8003 30.5159 13.3239C30.2145 13.8064 29.8304 14.2068 29.3743 14.5169C28.9389 14.8116 28.4216 15.0353 27.8367 15.1785C27.2698 15.3192 26.6236 15.3902 25.9148 15.3902H25.4582C25.1317 15.3902 24.8145 15.5023 24.5655 15.7033C24.3158 15.9085 24.1508 16.1888 24.1001 16.4954L24.0656 16.6738L23.4875 20.1663L23.4614 20.2944C23.4544 20.335 23.4425 20.3552 23.425 20.3689C23.4094 20.3815 23.387 20.3898 23.3651 20.3898H20.5455Z" fill="#28356A"/>
<path fill-rule="evenodd" clip-rule="evenodd" d="M30.4183 7.57324C30.4009 7.68001 30.3808 7.78911 30.3584 7.90122C29.5846 11.6895 26.937 12.9983 23.5558 12.9983H21.8342C21.4207 12.9983 21.0722 13.2845 21.0078 13.6734L19.8768 20.5144C19.8349 20.7699 20.0413 21 20.3115 21H23.365C23.7265 21 24.0337 20.7495 24.0906 20.4095L24.1206 20.2617L24.6955 16.7829L24.7325 16.5921C24.7887 16.2509 25.0966 16.0003 25.4581 16.0003H25.9148C28.8731 16.0003 31.1891 14.8552 31.866 11.541C32.1487 10.1566 32.0024 9.00059 31.2541 8.18759C31.0277 7.94248 30.7468 7.73898 30.4183 7.57324Z" fill="#019DDE"/>
<path fill-rule="evenodd" clip-rule="evenodd" d="M29.6089 7.26543C29.4906 7.23251 29.3686 7.20277 29.2435 7.17588C29.1177 7.14964 28.9889 7.12642 28.8563 7.10604C28.3921 7.03453 27.8834 7.00061 27.3386 7.00061H22.7394C22.626 7.00061 22.5185 7.025 22.4223 7.06911C22.2101 7.16635 22.0525 7.35782 22.0143 7.59223L21.0358 13.5011L21.0078 13.6734C21.0721 13.2844 21.4206 12.9982 21.8342 12.9982H23.5558C26.937 12.9982 29.5845 11.6888 30.3583 7.90116C30.3815 7.78905 30.4009 7.67995 30.4183 7.57319C30.2225 7.47411 30.0105 7.3894 29.7822 7.31722C29.7258 7.29935 29.6676 7.28214 29.6089 7.26543Z" fill="#00164C"/>
<path fill-rule="evenodd" clip-rule="evenodd" d="M22.0143 7.59231C22.0525 7.3579 22.21 7.16643 22.4222 7.06986C22.5191 7.02558 22.626 7.00119 22.7394 7.00119H27.3386C27.8834 7.00119 28.3921 7.03527 28.8562 7.10678C28.9889 7.127 29.1177 7.15039 29.2435 7.17662C29.3686 7.20335 29.4906 7.23326 29.6089 7.26601C29.6676 7.28271 29.7257 7.30009 29.7827 7.3173C30.011 7.38948 30.2232 7.47485 30.4189 7.57326C30.6492 6.17332 30.417 5.22013 29.6232 4.35701C28.748 3.40667 27.1685 3 25.1472 3H19.2792C18.8663 3 18.5141 3.2862 18.4503 3.67583L16.0063 18.4477C15.9581 18.7399 16.1944 19.0036 16.5036 19.0036H20.1262L22.0143 7.59231Z" fill="#012F86"/>
</svg>
